<svg version="1.1" id="Layer_1" xmlns="http://www.w3.org/2000/svg" xmlns:xlink="http://www.w3.org/1999/xlink" x="0px" y="0px"
	 width="100%" viewBox="0 0 1080 1080" enable-background="new 0 0 1080 1080" xml:space="preserve">
<path fill="#FFFFFF" opacity="1.000000" stroke="none" 
	d="
M604.000000,1081.000000 
	C402.689850,1081.000000 201.879684,1081.000000 1.069524,1081.000000 
	C1.046347,1080.856567 1.002855,1080.713013 1.002854,1080.569580 
	C0.999996,720.777771 1.000000,360.985962 1.000000,1.097076 
	C360.893738,1.097076 720.787476,1.097076 1080.840576,1.097076 
	C1080.840576,360.999939 1080.840576,720.999939 1080.840576,1081.000000 
	C922.128967,1081.000000 763.314514,1081.000000 604.000000,1081.000000 
M281.894897,570.700073 
	C282.266388,571.127502 282.637878,571.554993 283.295532,572.585205 
	C308.732697,600.477051 340.156647,610.438171 376.369171,600.651978 
	C411.415100,591.181030 433.976654,567.402344 441.505859,531.970581 
	C449.056763,496.436707 437.989227,465.890564 410.216797,442.047119 
	C399.487213,432.835449 387.151947,426.407471 372.433319,423.441498 
	C364.005127,422.959991 355.582397,422.236145 347.147614,422.045013 
	C326.492279,421.576904 308.637543,429.457611 293.304535,442.455292 
	C276.263184,456.901154 265.210968,475.305725 261.919434,497.794891 
	C258.714294,519.693420 262.399200,540.390808 273.474335,559.585876 
	C275.697998,563.439880 279.020569,566.659790 281.967133,570.110718 
	C281.967133,570.110718 281.823059,570.119263 281.894897,570.700073 
M509.866913,502.525024 
	C509.866913,514.946960 509.866913,527.368896 509.866913,539.769897 
	C513.145203,539.769897 515.906250,539.769897 518.991943,539.769897 
	C518.991943,528.813782 518.991943,518.095581 518.991943,507.377441 
	C519.312134,507.299927 519.632324,507.222443 519.952515,507.144958 
	C523.805481,518.091064 527.658508,529.037109 531.455505,539.824097 
	C534.536194,539.824097 537.157898,539.824097 539.803101,539.824097 
	C543.673157,528.830383 547.487183,517.995850 551.301270,507.161255 
	C551.649902,507.239441 551.998535,507.317627 552.347168,507.395813 
	C552.347168,518.156982 552.347168,528.918152 552.347168,539.754395 
	C555.660278,539.754395 558.571533,539.754395 561.536499,539.754395 
	C561.536499,522.954895 561.536499,506.415985 561.536499,489.489868 
	C559.091187,489.489868 556.895081,489.803314 554.824463,489.426788 
	C550.017822,488.552734 548.128174,490.799866 546.961548,495.165649 
	C545.422180,500.926544 543.191162,506.502777 541.252502,512.156677 
	C539.679871,516.743042 538.100098,521.326904 536.523499,525.911865 
	C536.141357,525.890442 535.759277,525.869080 535.377136,525.847717 
	C531.175781,513.721313 526.974426,501.594971 522.887817,489.799896 
	C518.287903,489.799896 514.204468,489.799896 509.866943,489.799896 
	C509.866943,493.917664 509.866943,497.728302 509.866913,502.525024 
M707.819763,492.149048 
	C702.879883,498.184845 697.940002,504.220673 693.000122,510.256470 
	C692.660278,510.062958 692.320435,509.869446 691.980591,509.675903 
	C691.980591,503.096100 691.980591,496.516266 691.980591,489.741364 
	C688.547913,489.741364 685.464905,489.741364 682.262573,489.741364 
	C682.262573,506.551392 682.262573,523.109192 682.262573,539.780640 
	C685.568115,539.780640 688.635864,539.780640 692.291260,539.780640 
	C692.291260,532.558167 692.291260,525.553040 692.291260,517.310181 
	C697.659851,523.877441 702.168091,529.391602 706.675598,534.906311 
	C711.241638,540.492737 714.507019,541.413696 721.991577,539.129944 
	C715.211426,530.501343 708.467102,521.918213 701.664734,513.261292 
	C708.007385,505.430878 714.114807,497.890839 720.222229,490.350830 
	C719.956787,489.811798 719.691284,489.272797 719.425842,488.733765 
	C715.702881,489.668671 711.979980,490.603577 707.819763,492.149048 
M629.613770,511.825836 
	C632.055664,510.902374 634.509827,509.237793 636.935791,509.278046 
	C639.068970,509.313416 641.170593,511.256927 643.286133,512.357666 
	C641.633789,513.885376 640.223267,515.989868 638.273193,516.807312 
	C635.253845,518.073059 631.756470,518.158325 628.658142,519.284302 
	C622.585022,521.491516 620.264404,526.490540 621.897583,532.954346 
	C623.179138,538.026611 628.085449,541.652039 633.720215,540.584961 
	C637.512756,539.866821 641.017395,537.628723 644.912048,535.958557 
	C646.299133,540.111816 650.357727,540.589233 654.721985,540.021545 
	C655.810364,539.879944 657.623291,538.764404 657.627563,538.087280 
	C657.639160,536.227173 657.014648,532.805359 656.381958,532.745544 
	C651.329102,532.266968 653.031189,528.585510 652.900574,525.980835 
	C652.692383,521.829224 652.962158,517.654907 652.793396,513.499756 
	C652.609741,508.976715 651.220215,504.994446 646.781494,502.794037 
	C639.619812,499.243835 628.160828,501.821686 622.558899,508.450989 
	C623.777039,510.257324 625.045898,512.138977 626.446289,514.215698 
	C627.459595,513.427490 628.225952,512.831360 629.613770,511.825836 
M762.774719,519.683533 
	C762.625916,518.698242 762.485779,517.711548 762.327087,516.727905 
	C760.755432,506.984772 753.991699,501.224792 744.116516,501.216156 
	C734.749573,501.207977 727.405457,507.085175 725.977661,515.732056 
	C724.021790,527.576904 728.168579,536.486755 737.086792,539.601501 
	C750.915771,544.431396 761.622986,536.519470 762.774719,519.683533 
M594.153320,523.497864 
	C594.153320,528.928955 594.153320,534.359985 594.153320,539.751770 
	C597.681030,539.751770 600.603760,539.751770 603.318970,539.751770 
	C603.612610,539.359741 603.795471,539.229431 603.796387,539.097961 
	C603.833496,533.609253 603.810242,528.119934 603.886780,522.631897 
	C604.032471,512.182800 606.266907,510.073395 616.758972,510.600555 
	C617.197815,507.930725 617.638733,505.248383 618.090942,502.497101 
	C611.999573,500.568024 607.343384,501.603729 604.089600,507.763397 
	C603.608765,505.113434 603.330139,503.578003 603.098328,502.300537 
	C599.918152,502.300537 597.164673,502.300537 594.153320,502.300537 
	C594.153320,509.239807 594.153320,515.869202 594.153320,523.497864 
M583.226685,505.595062 
	C582.391296,497.813232 576.912659,504.104523 574.064209,501.436371 
	C574.064209,514.941589 574.064209,527.323853 574.064209,539.726196 
	C577.231262,539.726196 580.129395,539.726196 583.226746,539.726196 
	C583.226746,528.485535 583.226746,517.530823 583.226685,505.595062 
M583.822754,494.382721 
	C583.963867,493.407623 584.274902,492.422150 584.216125,491.459229 
	C583.988281,487.728424 581.487305,486.172974 578.207458,486.380707 
	C574.967102,486.585968 572.579346,488.291809 572.844238,492.114990 
	C573.101074,495.821594 575.485535,497.428131 578.794983,497.248901 
	C580.374207,497.163330 581.882385,495.766388 583.822754,494.382721 
z"/>
<path fill="#42B9D5" opacity="1.000000" stroke="none" 
	d="
M373.007263,423.965485 
	C387.151947,426.407471 399.487213,432.835449 410.216797,442.047119 
	C437.989227,465.890564 449.056763,496.436707 441.505859,531.970581 
	C433.976654,567.402344 411.415100,591.181030 376.369171,600.651978 
	C340.156647,610.438171 308.732697,600.477051 283.136230,571.978638 
	C282.592285,570.954468 282.207672,570.536865 281.823059,570.119263 
	C281.823059,570.119263 281.967133,570.110718 281.920624,569.713989 
	C277.787842,556.732605 286.594727,545.274963 297.514526,544.770813 
	C301.013855,544.609314 304.561951,545.503479 308.075684,545.928955 
	C308.063629,545.943359 308.049744,545.923340 308.127869,546.178589 
	C308.505646,546.609131 308.805328,546.784302 309.378357,547.141907 
	C324.314728,563.494019 342.334717,570.554443 363.890778,565.918701 
	C384.197754,561.551575 397.950958,548.953369 404.261841,529.197815 
	C410.576599,509.430145 406.154175,491.542725 392.642181,475.842773 
	C384.238190,466.077881 373.008392,461.385132 360.830231,457.743652 
	C352.191132,451.217316 349.754791,441.817688 354.565002,433.015289 
	C358.532654,425.754608 365.150177,423.501160 373.007263,423.965485 
z"/>
<path fill="#6DE5E8" opacity="1.000000" stroke="none" 
	d="
M372.720276,423.703491 
	C365.150177,423.501160 358.532654,425.754608 354.565002,433.015289 
	C349.754791,441.817688 352.191132,451.217316 360.361389,457.779694 
	C357.075531,458.043915 354.076019,457.919312 351.077789,457.945221 
	C311.781097,458.284790 285.683716,500.349365 302.793915,535.787109 
	C304.449310,539.215637 306.318024,542.541260 308.087738,545.914612 
	C304.561951,545.503479 301.013855,544.609314 297.514526,544.770813 
	C286.594727,545.274963 277.787842,556.732605 281.855286,569.744629 
	C279.020569,566.659790 275.697998,563.439880 273.474335,559.585876 
	C262.399200,540.390808 258.714294,519.693420 261.919434,497.794891 
	C265.210968,475.305725 276.263184,456.901154 293.304535,442.455292 
	C308.637543,429.457611 326.492279,421.576904 347.147614,422.045013 
	C355.582397,422.236145 364.005127,422.959991 372.720276,423.703491 
z"/>
<path fill="#070707" opacity="1.000000" stroke="none" 
	d="
M509.866943,502.031982 
	C509.866943,497.728302 509.866943,493.917664 509.866943,489.799896 
	C514.204468,489.799896 518.287903,489.799896 522.887817,489.799896 
	C526.974426,501.594971 531.175781,513.721313 535.377136,525.847717 
	C535.759277,525.869080 536.141357,525.890442 536.523499,525.911865 
	C538.100098,521.326904 539.679871,516.743042 541.252502,512.156677 
	C543.191162,506.502777 545.422180,500.926544 546.961548,495.165649 
	C548.128174,490.799866 550.017822,488.552734 554.824463,489.426788 
	C556.895081,489.803314 559.091187,489.489868 561.536499,489.489868 
	C561.536499,506.415985 561.536499,522.954895 561.536499,539.754395 
	C558.571533,539.754395 555.660278,539.754395 552.347168,539.754395 
	C552.347168,528.918152 552.347168,518.156982 552.347168,507.395813 
	C551.998535,507.317627 551.649902,507.239441 551.301270,507.161255 
	C547.487183,517.995850 543.673157,528.830383 539.803101,539.824097 
	C537.157898,539.824097 534.536194,539.824097 531.455505,539.824097 
	C527.658508,529.037109 523.805481,518.091064 519.952515,507.144958 
	C519.632324,507.222443 519.312134,507.299927 518.991943,507.377441 
	C518.991943,518.095581 518.991943,528.813782 518.991943,539.769897 
	C515.906250,539.769897 513.145203,539.769897 509.866913,539.769897 
	C509.866913,527.368896 509.866913,514.946960 509.866943,502.031982 
z"/>
<path fill="#070707" opacity="1.000000" stroke="none" 
	d="
M708.038391,491.843750 
	C711.979980,490.603577 715.702881,489.668671 719.425842,488.733765 
	C719.691284,489.272797 719.956787,489.811798 720.222229,490.350830 
	C714.114807,497.890839 708.007385,505.430878 701.664734,513.261292 
	C708.467102,521.918213 715.211426,530.501343 721.991577,539.129944 
	C714.507019,541.413696 711.241638,540.492737 706.675598,534.906311 
	C702.168091,529.391602 697.659851,523.877441 692.291260,517.310181 
	C692.291260,525.553040 692.291260,532.558167 692.291260,539.780640 
	C688.635864,539.780640 685.568115,539.780640 682.262573,539.780640 
	C682.262573,523.109192 682.262573,506.551392 682.262573,489.741364 
	C685.464905,489.741364 688.547913,489.741364 691.980591,489.741364 
	C691.980591,496.516266 691.980591,503.096100 691.980591,509.675903 
	C692.320435,509.869446 692.660278,510.062958 693.000122,510.256470 
	C697.940002,504.220673 702.879883,498.184845 708.038391,491.843750 
z"/>
<path fill="#070707" opacity="1.000000" stroke="none" 
	d="
M629.303040,512.030518 
	C628.225952,512.831360 627.459595,513.427490 626.446289,514.215698 
	C625.045898,512.138977 623.777039,510.257324 622.558899,508.450989 
	C628.160828,501.821686 639.619812,499.243835 646.781494,502.794037 
	C651.220215,504.994446 652.609741,508.976715 652.793396,513.499756 
	C652.962158,517.654907 652.692383,521.829224 652.900574,525.980835 
	C653.031189,528.585510 651.329102,532.266968 656.381958,532.745544 
	C657.014648,532.805359 657.639160,536.227173 657.627563,538.087280 
	C657.623291,538.764404 655.810364,539.879944 654.721985,540.021545 
	C650.357727,540.589233 646.299133,540.111816 644.912048,535.958557 
	C641.017395,537.628723 637.512756,539.866821 633.720215,540.584961 
	C628.085449,541.652039 623.179138,538.026611 621.897583,532.954346 
	C620.264404,526.490540 622.585022,521.491516 628.658142,519.284302 
	C631.756470,518.158325 635.253845,518.073059 638.273193,516.807312 
	C640.223267,515.989868 641.633789,513.885376 643.286133,512.357666 
	C641.170593,511.256927 639.068970,509.313416 636.935791,509.278046 
	C634.509827,509.237793 632.055664,510.902374 629.303040,512.030518 
M635.626160,533.337891 
	C642.421997,532.557007 644.760986,528.884705 642.911255,521.668945 
	C640.385559,522.345398 637.659912,522.640442 635.396423,523.821289 
	C633.631653,524.741943 631.419128,526.684998 631.292725,528.319763 
	C631.173767,529.857117 633.525757,531.585693 635.626160,533.337891 
z"/>
<path fill="#070707" opacity="1.000000" stroke="none" 
	d="
M762.813965,520.122681 
	C761.622986,536.519470 750.915771,544.431396 737.086792,539.601501 
	C728.168579,536.486755 724.021790,527.576904 725.977661,515.732056 
	C727.405457,507.085175 734.749573,501.207977 744.116516,501.216156 
	C753.991699,501.224792 760.755432,506.984772 762.327087,516.727905 
	C762.485779,517.711548 762.625916,518.698242 762.813965,520.122681 
M745.915649,509.505219 
	C741.910461,508.850372 738.428284,509.852234 736.702942,513.686340 
	C734.495239,518.592224 734.297729,523.836426 737.033386,528.569275 
	C738.036682,530.305054 740.409302,531.842834 742.419250,532.288025 
	C747.715271,533.460999 750.933411,531.122986 752.417664,525.822449 
	C754.443481,518.587830 752.139893,512.146667 745.915649,509.505219 
z"/>
<path fill="#070707" opacity="1.000000" stroke="none" 
	d="
M594.153320,522.998230 
	C594.153320,515.869202 594.153320,509.239807 594.153320,502.300537 
	C597.164673,502.300537 599.918152,502.300537 603.098328,502.300537 
	C603.330139,503.578003 603.608765,505.113434 604.089600,507.763397 
	C607.343384,501.603729 611.999573,500.568024 618.090942,502.497101 
	C617.638733,505.248383 617.197815,507.930725 616.758972,510.600555 
	C606.266907,510.073395 604.032471,512.182800 603.886780,522.631897 
	C603.810242,528.119934 603.833496,533.609253 603.796387,539.097961 
	C603.795471,539.229431 603.612610,539.359741 603.318970,539.751770 
	C600.603760,539.751770 597.681030,539.751770 594.153320,539.751770 
	C594.153320,534.359985 594.153320,528.928955 594.153320,522.998230 
z"/>
<path fill="#070707" opacity="1.000000" stroke="none" 
	d="
M583.226685,506.085571 
	C583.226746,517.530823 583.226746,528.485535 583.226746,539.726196 
	C580.129395,539.726196 577.231262,539.726196 574.064209,539.726196 
	C574.064209,527.323853 574.064209,514.941589 574.064209,501.436371 
	C576.912659,504.104523 582.391296,497.813232 583.226685,506.085571 
z"/>
<path fill="#070707" opacity="1.000000" stroke="none" 
	d="
M583.622803,494.673096 
	C581.882385,495.766388 580.374207,497.163330 578.794983,497.248901 
	C575.485535,497.428131 573.101074,495.821594 572.844238,492.114990 
	C572.579346,488.291809 574.967102,486.585968 578.207458,486.380707 
	C581.487305,486.172974 583.988281,487.728424 584.216125,491.459229 
	C584.274902,492.422150 583.963867,493.407623 583.622803,494.673096 
z"/>
<path fill="#6DE5E8" opacity="1.000000" stroke="none" 
	d="
M281.858978,570.409668 
	C282.207672,570.536865 282.592285,570.954468 282.993134,571.677246 
	C282.637878,571.554993 282.266388,571.127502 281.858978,570.409668 
z"/>
<path fill="#FEFFFF" opacity="1.000000" stroke="none" 
	d="
M308.075684,545.928955 
	C306.318024,542.541260 304.449310,539.215637 302.793915,535.787109 
	C285.683716,500.349365 311.781097,458.284790 351.077789,457.945221 
	C354.076019,457.919312 357.075531,458.043915 360.543274,458.062439 
	C373.008392,461.385132 384.238190,466.077881 392.642181,475.842773 
	C406.154175,491.542725 410.576599,509.430145 404.261841,529.197815 
	C397.950958,548.953369 384.197754,561.551575 363.890778,565.918701 
	C342.334717,570.554443 324.314728,563.494019 309.285034,546.893433 
	C308.628845,546.282776 308.339294,546.103027 308.049744,545.923340 
	C308.049744,545.923340 308.063629,545.943359 308.075684,545.928955 
z"/>
<path fill="#6DE5E8" opacity="1.000000" stroke="none" 
	d="
M308.127869,546.178589 
	C308.339294,546.103027 308.628845,546.282776 309.011719,546.710938 
	C308.805328,546.784302 308.505646,546.609131 308.127869,546.178589 
z"/>
<path fill="#FEFFFF" opacity="1.000000" stroke="none" 
	d="
M635.208374,533.283997 
	C633.525757,531.585693 631.173767,529.857117 631.292725,528.319763 
	C631.419128,526.684998 633.631653,524.741943 635.396423,523.821289 
	C637.659912,522.640442 640.385559,522.345398 642.911255,521.668945 
	C644.760986,528.884705 642.421997,532.557007 635.208374,533.283997 
z"/>
<path fill="#FEFFFF" opacity="1.000000" stroke="none" 
	d="
M746.287598,509.613647 
	C752.139893,512.146667 754.443481,518.587830 752.417664,525.822449 
	C750.933411,531.122986 747.715271,533.460999 742.419250,532.288025 
	C740.409302,531.842834 738.036682,530.305054 737.033386,528.569275 
	C734.297729,523.836426 734.495239,518.592224 736.702942,513.686340 
	C738.428284,509.852234 741.910461,508.850372 746.287598,509.613647 
z"/>
</svg>