<svg version="1.1" id="Layer_1" xmlns="http://www.w3.org/2000/svg" xmlns:xlink="http://www.w3.org/1999/xlink" x="0px" y="0px"
	 width="100%" viewBox="0 0 531 220" enable-background="new 0 0 531 220" xml:space="preserve">
<path fill="#FEFEFE" opacity="1.000000" stroke="none" 
	d="
M337.000000,221.000000 
	C224.666672,221.000000 112.833336,221.000000 1.000000,221.000000 
	C1.000000,147.666672 1.000000,74.333336 1.000000,1.000000 
	C178.000000,1.000000 355.000000,1.000000 532.000000,1.000000 
	C532.000000,74.333336 532.000000,147.666672 532.000000,221.000000 
	C467.166656,221.000000 402.333344,221.000000 337.000000,221.000000 
M35.066833,158.886978 
	C41.137749,167.479797 49.125446,173.954926 58.018047,179.352783 
	C98.534309,203.946320 152.185379,193.470963 179.080276,155.769302 
	C207.081863,116.516266 201.961456,65.693398 166.373840,33.087612 
	C153.856003,21.618637 139.234833,13.897298 121.453217,11.328111 
	C91.847252,6.614755 65.569519,13.973315 43.519600,34.226242 
	C15.458668,60.000301 6.523529,98.666595 20.494049,134.147034 
	C23.875816,142.735580 29.991051,150.247833 35.066833,158.886978 
M298.117432,90.381561 
	C295.351379,98.397705 292.585297,106.413849 289.360291,115.760002 
	C288.206146,112.751068 287.580811,111.252121 287.051697,109.719948 
	C283.790741,100.276596 280.616028,90.802498 277.230408,81.404274 
	C276.761261,80.101952 275.381744,78.338112 274.258240,78.207176 
	C270.709991,77.793663 267.083191,78.054596 263.499298,78.054596 
	C263.499298,95.316917 263.499298,111.852753 263.499298,128.475159 
	C266.529083,128.475159 269.148743,128.475159 272.417297,128.475159 
	C272.417297,118.115540 272.417297,107.934235 272.417297,97.752930 
	C272.826050,97.677155 273.234802,97.601387 273.643555,97.525620 
	C274.227539,98.934845 274.878662,100.320457 275.384369,101.757233 
	C278.148712,109.610634 281.063110,117.418991 283.528290,125.366180 
	C284.536621,128.616821 286.529938,128.655746 289.167633,128.737320 
	C291.811035,128.819061 293.381622,128.311234 294.304688,125.428032 
	C297.045532,116.866936 300.136047,108.417320 303.130432,99.938454 
	C303.499634,98.892998 304.114227,97.934212 304.615112,96.935265 
	C304.949860,97.036545 305.284576,97.137825 305.619324,97.239105 
	C305.619324,107.512154 305.619324,117.785202 305.619324,128.360535 
	C308.934021,128.360535 311.817657,128.360535 314.786987,128.360535 
	C314.786987,111.537292 314.786987,94.978096 314.786987,78.462074 
	C302.657166,77.016716 302.657806,77.016937 299.020294,87.743530 
	C298.806366,88.374382 298.567871,88.996895 298.117432,90.381561 
M445.719543,97.896271 
	C445.719543,91.355850 445.719543,84.815430 445.719543,78.350334 
	C441.604004,78.350334 438.686798,78.350334 435.283539,78.350334 
	C435.283539,86.938065 435.283539,95.216537 435.283539,103.495010 
	C435.283539,111.750961 435.283539,120.006912 435.283539,128.316498 
	C438.966827,128.316498 442.003845,128.316498 445.715912,128.316498 
	C445.715912,121.162529 445.715912,114.358749 445.715912,107.554962 
	C450.934601,112.425659 455.615723,117.216644 459.139984,122.745087 
	C463.192169,129.101654 468.562805,129.438492 475.684540,128.186111 
	C468.648987,119.203209 461.945587,110.644417 455.030823,101.815765 
	C461.282104,94.126862 467.397888,86.604591 474.005798,78.477028 
	C467.425751,77.538078 462.618774,77.374352 458.891876,83.190704 
	C455.425873,88.599785 450.723969,93.216911 445.719543,97.896271 
M378.004120,100.275040 
	C379.061340,102.369972 380.124176,102.582527 382.238556,101.123672 
	C384.478760,99.577995 387.246857,98.143005 389.859894,97.995361 
	C392.019257,97.873337 395.677368,99.206871 396.226257,100.759712 
	C397.449493,104.220467 393.776672,104.797256 391.331390,105.534698 
	C388.157837,106.491776 384.776581,106.840492 381.696228,108.008812 
	C375.954468,110.186600 373.813141,114.637657 375.026337,120.849251 
	C376.030304,125.989655 380.183167,129.749619 385.817230,129.131866 
	C389.950684,128.678650 393.897949,126.527481 398.285583,125.009377 
	C399.700775,127.972534 403.207062,129.454102 407.557831,128.751587 
	C408.791992,128.552307 410.672760,127.472168 410.829041,126.553154 
	C411.109009,124.906944 410.589020,121.681686 409.910187,121.543747 
	C404.488495,120.442062 406.350525,116.334023 406.177795,113.214874 
	C405.957367,109.235077 406.266235,105.225655 406.038208,101.246689 
	C405.774841,96.651482 404.033630,92.576836 399.351562,91.059944 
	C391.991089,88.675308 384.931335,89.658012 378.418396,94.072952 
	C375.949554,95.746513 375.502228,97.492683 378.004120,100.275040 
M487.712189,92.099648 
	C479.005127,98.384636 476.058624,110.502281 481.001801,120.040375 
	C484.547150,126.881363 490.570129,129.418274 497.920441,129.291382 
	C505.329346,129.163498 511.117401,126.221260 514.241028,119.161545 
	C517.788879,111.143005 516.406250,100.306122 510.692047,94.898033 
	C504.129883,88.687340 496.402069,88.684006 487.712189,92.099648 
M371.272797,92.660858 
	C370.407776,91.861328 369.648010,90.556419 368.659332,90.350479 
	C364.559082,89.496391 361.120972,90.756233 358.649506,94.301460 
	C358.411407,94.643013 357.879486,94.779755 357.263977,95.140511 
	C356.972351,93.566422 356.721405,92.212135 356.478302,90.899963 
	C353.392426,90.899963 350.636841,90.899963 347.831421,90.899963 
	C347.831421,103.577576 347.831421,115.946419 347.831421,128.289536 
	C351.083221,128.289536 353.972473,128.289536 357.149109,128.289536 
	C357.149109,122.444473 357.102722,116.973450 357.159088,111.503479 
	C357.266541,101.074883 359.546631,98.845589 370.000397,99.131935 
	C370.384857,97.261276 370.781494,95.331528 371.272797,92.660858 
M327.005798,122.350746 
	C327.005798,124.289024 327.005798,126.227303 327.005798,128.386658 
	C330.439484,128.386658 333.314148,128.386658 336.397522,128.386658 
	C336.397522,115.730499 336.397522,103.387741 336.397522,90.843231 
	C333.210968,90.843231 330.306549,90.843231 327.005798,90.843231 
	C327.005798,101.205971 327.005798,111.294434 327.005798,122.350746 
M333.702362,75.118408 
	C330.197571,74.505157 327.220947,75.260719 326.224060,79.038483 
	C325.387909,82.207138 326.826019,85.110725 329.990021,85.521294 
	C332.175140,85.804832 335.536011,84.817413 336.734406,83.191422 
	C338.824829,80.355087 337.905945,77.153488 333.702362,75.118408 
z"/>
<path fill="#43B9D6" opacity="1.000000" stroke="none" 
	d="
M122.053505,11.838860 
	C139.234833,13.897298 153.856003,21.618637 166.373840,33.087612 
	C201.961456,65.693398 207.081863,116.516266 179.080276,155.769302 
	C152.185379,193.470963 98.534309,203.946320 58.018047,179.352783 
	C49.125446,173.954926 41.137749,167.479797 35.009705,158.135529 
	C30.172220,143.253830 43.662216,131.362762 54.332008,133.066635 
	C56.911385,133.478531 59.413425,134.374710 62.232697,135.221024 
	C64.178238,137.026520 65.821632,138.680695 67.509209,140.288498 
	C81.406822,153.529037 97.898727,158.690994 116.631660,154.697845 
	C137.383682,150.274323 151.523331,137.528900 157.700516,117.271057 
	C163.927475,96.849960 159.044174,78.509460 144.459625,62.816608 
	C135.924652,53.633038 124.776077,49.539413 113.003189,46.184929 
	C112.202896,44.983578 111.508430,44.056133 110.716019,43.221703 
	C103.333954,35.448162 104.139595,22.261999 112.731560,16.008820 
	C115.424232,14.049109 118.923462,13.197616 122.053505,11.838860 
z"/>
<path fill="#6EE5E8" opacity="1.000000" stroke="none" 
	d="
M61.951027,135.048203 
	C59.413425,134.374710 56.911385,133.478531 54.332008,133.066635 
	C43.662216,131.362762 30.172220,143.253830 34.900948,157.819550 
	C29.991051,150.247833 23.875816,142.735580 20.494049,134.147034 
	C6.523529,98.666595 15.458668,60.000301 43.519600,34.226242 
	C65.569519,13.973315 91.847252,6.614755 121.753357,11.583486 
	C118.923462,13.197616 115.424232,14.049109 112.731560,16.008820 
	C104.139595,22.261999 103.333954,35.448162 110.716019,43.221703 
	C111.508430,44.056133 112.202896,44.983578 112.596497,46.308784 
	C108.130753,46.780140 104.003807,46.660442 99.893074,46.865665 
	C75.173798,48.099728 52.130692,71.884544 50.907681,96.534645 
	C50.198997,110.818451 54.410789,123.318344 61.951027,135.048203 
z"/>
<path fill="#0C0C0C" opacity="1.000000" stroke="none" 
	d="
M298.229126,90.002426 
	C298.567871,88.996895 298.806366,88.374382 299.020294,87.743530 
	C302.657806,77.016937 302.657166,77.016716 314.786987,78.462074 
	C314.786987,94.978096 314.786987,111.537292 314.786987,128.360535 
	C311.817657,128.360535 308.934021,128.360535 305.619324,128.360535 
	C305.619324,117.785202 305.619324,107.512154 305.619324,97.239105 
	C305.284576,97.137825 304.949860,97.036545 304.615112,96.935265 
	C304.114227,97.934212 303.499634,98.892998 303.130432,99.938454 
	C300.136047,108.417320 297.045532,116.866936 294.304688,125.428032 
	C293.381622,128.311234 291.811035,128.819061 289.167633,128.737320 
	C286.529938,128.655746 284.536621,128.616821 283.528290,125.366180 
	C281.063110,117.418991 278.148712,109.610634 275.384369,101.757233 
	C274.878662,100.320457 274.227539,98.934845 273.643555,97.525620 
	C273.234802,97.601387 272.826050,97.677155 272.417297,97.752930 
	C272.417297,107.934235 272.417297,118.115540 272.417297,128.475159 
	C269.148743,128.475159 266.529083,128.475159 263.499298,128.475159 
	C263.499298,111.852753 263.499298,95.316917 263.499298,78.054596 
	C267.083191,78.054596 270.709991,77.793663 274.258240,78.207176 
	C275.381744,78.338112 276.761261,80.101952 277.230408,81.404274 
	C280.616028,90.802498 283.790741,100.276596 287.051697,109.719948 
	C287.580811,111.252121 288.206146,112.751068 289.360291,115.760002 
	C292.585297,106.413849 295.351379,98.397705 298.229126,90.002426 
z"/>
<path fill="#0E0E0E" opacity="1.000000" stroke="none" 
	d="
M446.142883,98.039490 
	C450.723969,93.216911 455.425873,88.599785 458.891876,83.190704 
	C462.618774,77.374352 467.425751,77.538078 474.005798,78.477028 
	C467.397888,86.604591 461.282104,94.126862 455.030823,101.815765 
	C461.945587,110.644417 468.648987,119.203209 475.684540,128.186111 
	C468.562805,129.438492 463.192169,129.101654 459.139984,122.745087 
	C455.615723,117.216644 450.934601,112.425659 445.715912,107.554962 
	C445.715912,114.358749 445.715912,121.162529 445.715912,128.316498 
	C442.003845,128.316498 438.966827,128.316498 435.283539,128.316498 
	C435.283539,120.006912 435.283539,111.750961 435.283539,103.495010 
	C435.283539,95.216537 435.283539,86.938065 435.283539,78.350334 
	C438.686798,78.350334 441.604004,78.350334 445.719543,78.350334 
	C445.719543,84.815430 445.719543,91.355850 446.142883,98.039490 
z"/>
<path fill="#0F0F0F" opacity="1.000000" stroke="none" 
	d="
M377.813507,99.992111 
	C375.502228,97.492683 375.949554,95.746513 378.418396,94.072952 
	C384.931335,89.658012 391.991089,88.675308 399.351562,91.059944 
	C404.033630,92.576836 405.774841,96.651482 406.038208,101.246689 
	C406.266235,105.225655 405.957367,109.235077 406.177795,113.214874 
	C406.350525,116.334023 404.488495,120.442062 409.910187,121.543747 
	C410.589020,121.681686 411.109009,124.906944 410.829041,126.553154 
	C410.672760,127.472168 408.791992,128.552307 407.557831,128.751587 
	C403.207062,129.454102 399.700775,127.972534 398.285583,125.009377 
	C393.897949,126.527481 389.950684,128.678650 385.817230,129.131866 
	C380.183167,129.749619 376.030304,125.989655 375.026337,120.849251 
	C373.813141,114.637657 375.954468,110.186600 381.696228,108.008812 
	C384.776581,106.840492 388.157837,106.491776 391.331390,105.534698 
	C393.776672,104.797256 397.449493,104.220467 396.226257,100.759712 
	C395.677368,99.206871 392.019257,97.873337 389.859894,97.995361 
	C387.246857,98.143005 384.478760,99.577995 382.238556,101.123672 
	C380.124176,102.582527 379.061340,102.369972 377.813507,99.992111 
M391.122253,121.884560 
	C396.455322,119.580391 397.580414,117.194794 396.496155,110.272934 
	C394.094727,110.853058 391.696625,111.398773 389.317047,112.015816 
	C386.403137,112.771400 383.903931,114.033600 384.293793,117.652069 
	C384.679932,121.236031 387.171692,122.139565 391.122253,121.884560 
z"/>
<path fill="#0E0E0E" opacity="1.000000" stroke="none" 
	d="
M488.049438,91.944748 
	C496.402069,88.684006 504.129883,88.687340 510.692047,94.898033 
	C516.406250,100.306122 517.788879,111.143005 514.241028,119.161545 
	C511.117401,126.221260 505.329346,129.163498 497.920441,129.291382 
	C490.570129,129.418274 484.547150,126.881363 481.001801,120.040375 
	C476.058624,110.502281 479.005127,98.384636 488.049438,91.944748 
M495.058350,120.935150 
	C499.065308,121.419434 503.581299,121.312828 504.601929,116.865814 
	C505.660278,112.254623 505.914429,106.935669 504.656830,102.448509 
	C503.082825,96.832298 494.394928,96.313301 490.720490,101.024666 
	C486.496307,106.440933 488.401917,117.051392 495.058350,120.935150 
z"/>
<path fill="#0B0B0B" opacity="1.000000" stroke="none" 
	d="
M371.225464,93.031311 
	C370.781494,95.331528 370.384857,97.261276 370.000397,99.131935 
	C359.546631,98.845589 357.266541,101.074883 357.159088,111.503479 
	C357.102722,116.973450 357.149109,122.444473 357.149109,128.289536 
	C353.972473,128.289536 351.083221,128.289536 347.831421,128.289536 
	C347.831421,115.946419 347.831421,103.577576 347.831421,90.899963 
	C350.636841,90.899963 353.392426,90.899963 356.478302,90.899963 
	C356.721405,92.212135 356.972351,93.566422 357.263977,95.140511 
	C357.879486,94.779755 358.411407,94.643013 358.649506,94.301460 
	C361.120972,90.756233 364.559082,89.496391 368.659332,90.350479 
	C369.648010,90.556419 370.407776,91.861328 371.225464,93.031311 
z"/>
<path fill="#141414" opacity="1.000000" stroke="none" 
	d="
M327.005798,121.866821 
	C327.005798,111.294434 327.005798,101.205971 327.005798,90.843231 
	C330.306549,90.843231 333.210968,90.843231 336.397522,90.843231 
	C336.397522,103.387741 336.397522,115.730499 336.397522,128.386658 
	C333.314148,128.386658 330.439484,128.386658 327.005798,128.386658 
	C327.005798,126.227303 327.005798,124.289024 327.005798,121.866821 
z"/>
<path fill="#181818" opacity="1.000000" stroke="none" 
	d="
M334.030762,75.240273 
	C337.905945,77.153488 338.824829,80.355087 336.734406,83.191422 
	C335.536011,84.817413 332.175140,85.804832 329.990021,85.521294 
	C326.826019,85.110725 325.387909,82.207138 326.224060,79.038483 
	C327.220947,75.260719 330.197571,74.505157 334.030762,75.240273 
z"/>
<path fill="#FEFFFF" opacity="1.000000" stroke="none" 
	d="
M62.232697,135.221024 
	C54.410789,123.318344 50.198997,110.818451 50.907681,96.534645 
	C52.130692,71.884544 75.173798,48.099728 99.893074,46.865665 
	C104.003807,46.660442 108.130753,46.780140 112.656891,46.625832 
	C124.776077,49.539413 135.924652,53.633038 144.459625,62.816608 
	C159.044174,78.509460 163.927475,96.849960 157.700516,117.271057 
	C151.523331,137.528900 137.383682,150.274323 116.631660,154.697845 
	C97.898727,158.690994 81.406822,153.529037 67.509209,140.288498 
	C65.821632,138.680695 64.178238,137.026520 62.232697,135.221024 
z"/>
<path fill="#E9E9E9" opacity="1.000000" stroke="none" 
	d="
M390.728088,121.935715 
	C387.171692,122.139565 384.679932,121.236031 384.293793,117.652069 
	C383.903931,114.033600 386.403137,112.771400 389.317047,112.015816 
	C391.696625,111.398773 394.094727,110.853058 396.496155,110.272934 
	C397.580414,117.194794 396.455322,119.580391 390.728088,121.935715 
z"/>
<path fill="#F4F4F4" opacity="1.000000" stroke="none" 
	d="
M494.661255,120.845551 
	C488.401917,117.051392 486.496307,106.440933 490.720490,101.024666 
	C494.394928,96.313301 503.082825,96.832298 504.656830,102.448509 
	C505.914429,106.935669 505.660278,112.254623 504.601929,116.865814 
	C503.581299,121.312828 499.065308,121.419434 494.661255,120.845551 
z"/>
</svg>